{
	"asset":{
		"generator":"Khronos glTF Blender I/O v5.2.40",
		"version":"2.0"
	},
	"scene":0,
	"scenes":[
		{
			"name":"Scene",
			"nodes":[
				0,
				1,
				2
			]
		}
	],
	"nodes":[
		{
			"mesh":0,
			"name":"bottom",
			"translation":[
				10.889525413513184,
				0,
				0
			]
		},
		{
			"mesh":1,
			"name":"OneCollider"
		},
		{
			"mesh":2,
			"name":"top",
			"translation":[
				10.889525413513184,
				0,
				0
			]
		}
	],
	"materials":[
		{
			"doubleSided":true,
			"name":"down",
			"pbrMetallicRoughness":{
				"baseColorFactor":[
					0,
					0,
					0,
					1
				],
				"metallicFactor":0
			}
		},
		{
			"doubleSided":true,
			"name":"top",
			"pbrMetallicRoughness":{
				"baseColorFactor":[
					0.10900820791721344,
					0.6781200766563416,
					0.06323771923780441,
					1
				],
				"metallicFactor":0,
				"roughnessFactor":0.5
			}
		}
	],
	"meshes":[
		{
			"name":"Circle.002",
			"primitives":[
				{
					"attributes":{
						"POSITION":0,
						"NORMAL":1,
						"TEXCOORD_0":2,
						"TANGENT":3
					},
					"indices":4,
					"material":0
				}
			]
		},
		{
			"name":"Circle",
			"primitives":[
				{
					"attributes":{
						"POSITION":5,
						"NORMAL":6,
						"TEXCOORD_0":7,
						"TANGENT":8
					},
					"indices":9,
					"material":1
				},
				{
					"attributes":{
						"POSITION":10,
						"NORMAL":11,
						"TEXCOORD_0":12,
						"TANGENT":13
					},
					"indices":4,
					"material":0
				}
			]
		},
		{
			"name":"Circle.003",
			"primitives":[
				{
					"attributes":{
						"POSITION":14,
						"NORMAL":15,
						"TEXCOORD_0":16,
						"TANGENT":17
					},
					"indices":9,
					"material":1
				}
			]
		}
	],
	"accessors":[
		{
			"bufferView":0,
			"componentType":5126,
			"count":64,
			"max":[
				0.5,
				0,
				0.5
			],
			"min":[
				-0.5,
				-2,
				-0.5
			],
			"type":"VEC3"
		},
		{
			"bufferView":1,
			"componentType":5126,
			"count":64,
			"type":"VEC3"
		},
		{
			"bufferView":2,
			"componentType":5126,
			"count":64,
			"type":"VEC2"
		},
		{
			"bufferView":3,
			"componentType":5126,
			"count":64,
			"type":"VEC4"
		},
		{
			"bufferView":4,
			"componentType":5123,
			"count":96,
			"type":"SCALAR"
		},
		{
			"bufferView":5,
			"componentType":5126,
			"count":32,
			"max":[
				2.23014497756958,
				0,
				2.23014497756958
			],
			"min":[
				-2.23014497756958,
				0,
				-2.23014497756958
			],
			"type":"VEC3"
		},
		{
			"bufferView":6,
			"componentType":5126,
			"count":32,
			"type":"VEC3"
		},
		{
			"bufferView":7,
			"componentType":5126,
			"count":32,
			"type":"VEC2"
		},
		{
			"bufferView":8,
			"componentType":5126,
			"count":32,
			"type":"VEC4"
		},
		{
			"bufferView":9,
			"componentType":5123,
			"count":96,
			"type":"SCALAR"
		},
		{
			"bufferView":10,
			"componentType":5126,
			"count":64,
			"max":[
				0.5,
				0,
				0.5
			],
			"min":[
				-0.5,
				-2,
				-0.5
			],
			"type":"VEC3"
		},
		{
			"bufferView":11,
			"componentType":5126,
			"count":64,
			"type":"VEC3"
		},
		{
			"bufferView":12,
			"componentType":5126,
			"count":64,
			"type":"VEC2"
		},
		{
			"bufferView":13,
			"componentType":5126,
			"count":64,
			"type":"VEC4"
		},
		{
			"bufferView":14,
			"componentType":5126,
			"count":32,
			"max":[
				22.4307918548584,
				0,
				22.4307918548584
			],
			"min":[
				-22.4307918548584,
				0,
				-22.4307918548584
			],
			"type":"VEC3"
		},
		{
			"bufferView":15,
			"componentType":5126,
			"count":32,
			"type":"VEC3"
		},
		{
			"bufferView":16,
			"componentType":5126,
			"count":32,
			"type":"VEC2"
		},
		{
			"bufferView":17,
			"componentType":5126,
			"count":32,
			"type":"VEC4"
		}
	],
	"bufferViews":[
		{
			"buffer":0,
			"byteLength":768,
			"byteOffset":0,
			"target":34962
		},
		{
			"buffer":0,
			"byteLength":768,
			"byteOffset":768,
			"target":34962
		},
		{
			"buffer":0,
			"byteLength":512,
			"byteOffset":1536,
			"target":34962
		},
		{
			"buffer":0,
			"byteLength":1024,
			"byteOffset":2048,
			"target":34962
		},
		{
			"buffer":0,
			"byteLength":192,
			"byteOffset":3072,
			"target":34963
		},
		{
			"buffer":0,
			"byteLength":384,
			"byteOffset":3264,
			"target":34962
		},
		{
			"buffer":0,
			"byteLength":384,
			"byteOffset":3648,
			"target":34962
		},
		{
			"buffer":0,
			"byteLength":256,
			"byteOffset":4032,
			"target":34962
		},
		{
			"buffer":0,
			"byteLength":512,
			"byteOffset":4288,
			"target":34962
		},
		{
			"buffer":0,
			"byteLength":192,
			"byteOffset":4800,
			"target":34963
		},
		{
			"buffer":0,
			"byteLength":768,
			"byteOffset":4992,
			"target":34962
		},
		{
			"buffer":0,
			"byteLength":768,
			"byteOffset":5760,
			"target":34962
		},
		{
			"buffer":0,
			"byteLength":512,
			"byteOffset":6528,
			"target":34962
		},
		{
			"buffer":0,
			"byteLength":1024,
			"byteOffset":7040,
			"target":34962
		},
		{
			"buffer":0,
			"byteLength":384,
			"byteOffset":8064,
			"target":34962
		},
		{
			"buffer":0,
			"byteLength":384,
			"byteOffset":8448,
			"target":34962
		},
		{
			"buffer":0,
			"byteLength":256,
			"byteOffset":8832,
			"target":34962
		},
		{
			"buffer":0,
			"byteLength":512,
			"byteOffset":9088,
			"target":34962
		}
	],
	"buffers":[
		{
			"byteLength":9600,
			"uri":"hole_concave_collider-8c04d9af204871dc25ec0f6688bba081.bin"
		}
	]
}
